<svg xmlns="http://www.w3.org/2000/svg" width="45" height="45" viewBox="0 0 45 45" fill="none"><g clip-path="url(#clip0_1_4087)"><path d="M33.7912 41.9238H24.3457V41.3965C24.3457 41.0324 24.0506 40.7373 23.6865 40.7373H21.3135C20.9494 40.7373 20.6543 41.0324 20.6543 41.3965V41.9238H4.83398V40.8252C4.83398 40.4611 4.53885 40.166 4.1748 40.166H3.07617V24.3457H3.60352C3.96756 24.3457 4.2627 24.0507 4.2627 23.6865V21.3135C4.2627 20.9493 3.96756 20.6543 3.60352 20.6543H3.07617V4.83398H4.1748C4.53885 4.83398 4.83398 4.53894 4.83398 4.1748V3.07617H8.48435C8.84839 3.07617 9.14353 2.78112 9.14353 2.41699C9.14353 2.05286 8.84839 1.75781 8.48435 1.75781H4.83398V0.65918C4.83398 0.295049 4.53885 0 4.1748 0H0.65918C0.295137 0 0 0.295049 0 0.65918V4.1748C0 4.53894 0.295137 4.83398 0.65918 4.83398H1.75781V20.6543H1.23047C0.866426 20.6543 0.571289 20.9493 0.571289 21.3135V23.6865C0.571289 24.0507 0.866426 24.3457 1.23047 24.3457H1.75781V40.166H0.65918C0.295137 40.166 0 40.4611 0 40.8252V44.3408C0 44.705 0.295137 45 0.65918 45H4.1748C4.53885 45 4.83398 44.705 4.83398 44.3408V43.2422H20.6543V43.7695C20.6543 44.1337 20.9494 44.4287 21.3135 44.4287H23.6865C24.0506 44.4287 24.3457 44.1337 24.3457 43.7695V43.2422H33.7912C34.1553 43.2422 34.4504 42.9471 34.4504 42.583C34.4504 42.2189 34.1553 41.9238 33.7912 41.9238ZM1.31836 1.31836H3.51562V3.51562H1.31836V1.31836ZM1.88965 21.9727H2.94434V23.0273H1.88965V21.9727ZM3.51562 43.6816H1.31836V41.4844H3.51562V43.6816ZM23.0273 43.1104H21.9727V42.0557H23.0273V43.1104Z" fill="url(#paint0_linear_1_4087)"></path><path d="M44.3408 4.83398C44.7048 4.83398 45 4.53894 45 4.1748V0.65918C45 0.295049 44.7048 0 44.3408 0H40.8252C40.4611 0 40.166 0.295049 40.166 0.65918V1.75781H24.3457V1.23047C24.3457 0.866338 24.0505 0.571289 23.6865 0.571289H21.3135C20.9494 0.571289 20.6543 0.866338 20.6543 1.23047V1.75781H11.6537C11.2897 1.75781 10.9946 2.05286 10.9946 2.41699C10.9946 2.78112 11.2897 3.07617 11.6537 3.07617H20.6543V3.60352C20.6543 3.96765 20.9494 4.2627 21.3135 4.2627H23.6865C24.0505 4.2627 24.3457 3.96765 24.3457 3.60352V3.07617H40.166V4.1748C40.166 4.53894 40.4611 4.83398 40.8252 4.83398H41.9238V20.6543H41.3965C41.0324 20.6543 40.7373 20.9493 40.7373 21.3135V23.6865C40.7373 24.0507 41.0324 24.3457 41.3965 24.3457H41.9238V40.166H40.8252C40.4611 40.166 40.166 40.4611 40.166 40.8252V41.9238H36.8724C36.5083 41.9238 36.2132 42.2189 36.2132 42.583C36.2132 42.9471 36.5083 43.2422 36.8724 43.2422H40.166V44.3408C40.166 44.705 40.4611 45 40.8252 45H44.3408C44.7048 45 45 44.705 45 44.3408V40.8252C45 40.4611 44.7048 40.166 44.3408 40.166H43.2422V24.3457H43.7695C44.1336 24.3457 44.4287 24.0507 44.4287 23.6865V21.3135C44.4287 20.9493 44.1336 20.6543 43.7695 20.6543H43.2422V4.83398H44.3408ZM23.0273 2.94434H21.9726V1.88965H23.0273V2.94434ZM43.6816 43.6816H41.4844V41.4844H43.6816V43.6816ZM43.1103 23.0273H42.0556V21.9727H43.1103V23.0273ZM41.4844 1.31836H43.6816V3.51562H41.4844V1.31836Z" fill="url(#paint1_linear_1_4087)"></path><path d="M6.96859 37.4586C7.17267 37.7465 7.50498 37.9184 7.85769 37.9184H15.4036C16.1245 37.9184 16.7783 37.4642 17.0307 36.7874L18.9495 31.6245H26.0639L27.9617 36.7813C28.2107 37.4614 28.8656 37.9185 29.591 37.9185H37.1423C37.4953 37.9185 37.8277 37.7467 38.0316 37.459C38.2355 37.1713 38.2875 36.8008 38.1706 36.468L28.2691 8.24098C28.0246 7.54734 27.3666 7.08144 26.6317 7.08144C24.565 7.08144 20.4075 7.08144 18.3684 7.08144C17.6333 7.08144 16.9753 7.54752 16.7307 8.24194L6.82946 36.4678C6.71265 36.8005 6.76468 37.171 6.96859 37.4586V37.4586ZM17.9743 8.67911C18.0332 8.51203 18.1915 8.39971 18.3683 8.39971H22.355C22.4942 8.40577 22.6234 8.46053 22.7486 8.67823L25.233 15.7605C25.3535 16.1039 25.7297 16.2848 26.0733 16.1643C26.4168 16.0438 26.5976 15.6676 26.4771 15.3241L24.0481 8.39971H26.6316C26.8083 8.39971 26.9666 8.51194 27.0252 8.67823L36.8197 36.6H33.9302C33.9207 36.5556 27.4992 18.238 27.4992 18.238C27.3787 17.8944 27.0024 17.7135 26.659 17.8342C26.3154 17.9546 26.1346 18.3308 26.2551 18.6744L32.5431 36.6H29.5908C29.4164 36.6 29.2591 36.4907 29.1991 36.327L27.1421 30.7376C27.0468 30.4784 26.7997 30.3061 26.5235 30.3061H14.2147C13.9393 30.3061 13.6928 30.4774 13.5969 30.7357L13.0573 32.1877C12.9305 32.5289 13.1043 32.9083 13.4455 33.0352C13.7867 33.1621 14.1662 32.9882 14.293 32.6469L14.673 31.6245H17.5431L15.7953 36.3276C15.7344 36.4906 15.577 36.6002 15.4036 36.6002H12.8239L13.2146 35.5488C13.3414 35.2076 13.1676 34.8282 12.8264 34.7012C12.4853 34.5744 12.1057 34.7483 11.9789 35.0895L11.5186 36.3279C11.4901 36.4046 11.4404 36.4705 11.3753 36.5184C11.3024 36.5718 11.2165 36.6002 11.1271 36.6002H8.18016L17.9743 8.67911Z" fill="url(#paint2_linear_1_4087)"></path><path d="M15.6496 27.2293H25.105C25.3188 27.2293 25.5191 27.1257 25.6427 26.9514C25.7663 26.7771 25.7978 26.5537 25.727 26.352L20.9843 12.8297C20.8916 12.5655 20.6422 12.3886 20.3623 12.3886C20.3621 12.3886 20.3618 12.3886 20.3616 12.3886C20.0814 12.3889 19.832 12.5663 19.7398 12.8309L15.0271 26.3532C14.9569 26.5547 14.9886 26.7779 15.1122 26.9519C15.2359 27.126 15.4361 27.2293 15.6496 27.2293V27.2293ZM20.8538 25.9109L22.5091 21.1605L24.1752 25.9109H20.8538ZM20.3642 15.0451L21.8087 19.1637L19.4577 25.9109H16.5773L20.3642 15.0451Z" fill="url(#paint3_linear_1_4087)"></path></g><defs><linearGradient id="paint0_linear_1_4087" x1="21.5164" y1="17.875" x2="-2.19806" y2="18.1532" gradientUnits="userSpaceOnUse"><stop stop-color="#7900FF"></stop><stop offset="1" stop-color="#FF2377"></stop></linearGradient><linearGradient id="paint1_linear_1_4087" x1="32.233" y1="17.875" x2="8.82482" y2="18.1461" gradientUnits="userSpaceOnUse"><stop stop-color="#7900FF"></stop><stop offset="1" stop-color="#FF2377"></stop></linearGradient><linearGradient id="paint2_linear_1_4087" x1="26.4193" y1="19.3306" x2="4.76293" y2="19.6692" gradientUnits="userSpaceOnUse"><stop stop-color="#7900FF"></stop><stop offset="1" stop-color="#FF2377"></stop></linearGradient><linearGradient id="paint3_linear_1_4087" x1="21.7193" y1="18.2837" x2="14.3029" y2="18.3662" gradientUnits="userSpaceOnUse"><stop stop-color="#7900FF"></stop><stop offset="1" stop-color="#FF2377"></stop></linearGradient><clipPath id="clip0_1_4087"><rect width="45" height="45" fill="white"></rect></clipPath></defs></svg>