<?xml version="1.0" encoding="utf-8"?>
<!-- Generator: Adobe Illustrator 24.0.1, SVG Export Plug-In . SVG Version: 6.00 Build 0)  -->
<svg version="1.1" id="Layer_1" xmlns="http://www.w3.org/2000/svg" xmlns:xlink="http://www.w3.org/1999/xlink" x="0px" y="0px"
	 viewBox="0 0 1316 186" style="enable-background:new 0 0 1316 186;" xml:space="preserve">
<style type="text/css">
	.st0{fill:none;stroke:#45474E;stroke-width:2;stroke-miterlimit:10;}
</style>
<g>
	<path class="st0" d="M3,34.4h73.3v27.5H55.1v93H24v-93H3.1L3,34.4L3,34.4z"/>
	<path class="st0" d="M95.4,34.4h62.1V60h-31.4v22.2h27.3v25h-27.3v21.9h31.6v25.7H95.4C95.4,154.8,95.4,34.4,95.4,34.4z"/>
	<path class="st0" d="M253.1,126.4V155c-6.5,1.9-12.3,2.8-17.4,2.8c-17.8,0-32.2-5.9-43.2-17.8c-11-11.9-16.6-27.5-16.6-46.9
		c0-18,5.6-32.8,16.7-44.5c11.2-11.7,25.2-17.5,42.3-17.5c6.7,0,12.7,0.8,18.3,2.3v28.7c-5.9-1.7-11.5-2.6-16.6-2.6
		c-8,0-14.6,3.2-19.9,9.8c-5.2,6.5-7.9,14.8-7.9,24.8c0,10.9,2.7,19.4,8,25.7c5.3,6.3,12.4,9.4,21.2,9.4
		C242.1,129.1,247.3,128.2,253.1,126.4z"/>
	<path class="st0" d="M272.9,34.4h30.7V79h27.3V34.4h30.7v120.5h-30.7v-50.1h-27.3v50.1h-30.7V34.4z"/>
	<path class="st0" d="M390.6,34.4h31.1l39.1,69.5l-1.2-13V34.4h30.7v120.5h-31.5l-38.3-68.4l0.8,15v53.4h-30.7V34.4z"/>
	<path class="st0" d="M563.5,157.8c-16.3,0-28.8-5.6-37.4-16.8c-8.6-11.1-12.9-27.3-12.9-48.3c0-19.4,4.3-34.6,13-45.4
		c8.6-10.9,20.6-16.3,36-16.3c16.4,0,28.9,5.4,37.6,16.4c8.7,10.9,13,26.5,13,46.7s-4.3,35.9-12.8,47.1
		C591.5,152.2,579.4,157.8,563.5,157.8z M562.4,58.4c-11.1,0-16.6,11.6-16.6,34.8c0,14.9,1.4,24.9,4.2,29.9c2.8,5,6.8,7.5,12.2,7.5
		c5.8,0,10.1-2.5,13.2-7.5c3.1-5,4.6-14.8,4.6-29.3C580.1,70.1,574.1,58.4,562.4,58.4z"/>
	<path class="st0" d="M635.7,34.4h30.7v92.6h24.3v27.9h-55V34.4z"/>
	<path class="st0" d="M753.8,157.8c-16.3,0-28.8-5.6-37.4-16.8c-8.6-11.1-12.9-27.3-12.9-48.3c0-19.4,4.3-34.6,13-45.4
		s20.6-16.3,36-16.3c16.4,0,28.9,5.4,37.6,16.4c8.7,10.9,13,26.5,13,46.7s-4.3,35.9-12.8,47.1C781.8,152.2,769.6,157.8,753.8,157.8z
		 M752.7,58.4c-11.1,0-16.6,11.6-16.6,34.8c0,14.9,1.4,24.9,4.2,29.9c2.8,5,6.8,7.5,12.2,7.5c5.8,0,10.1-2.5,13.2-7.5
		c3.1-5,4.6-14.8,4.6-29.3C770.3,70.1,764.4,58.4,752.7,58.4z"/>
	<path class="st0" d="M919.1,87.3v20.2c0,15.7-4.3,27.9-12.7,36.8c-8.5,8.9-20.1,13.4-34.8,13.4c-16.5,0-29.2-5.5-38.3-16.6
		c-9-11.1-13.5-26.8-13.5-47.2c0-20.6,4.4-36.3,13.4-46.9c9-10.7,22-16,39.3-16c19.4,0,33.3,9.1,42,27.5l-29.3,10.7
		c-2.4-3.8-4.7-6.7-6.8-8.5c-2.1-1.8-5-2.7-8.6-2.7c-6.2,0-10.7,2.9-13.2,8.7c-2.6,5.8-3.9,15.2-3.9,28.2c0,12.1,1.5,21,4.4,26.7
		c2.9,5.7,7.6,8.5,14,8.5c10.3,0,15.5-6.5,15.9-19.6h-14.3V87.2L919.1,87.3L919.1,87.3L919.1,87.3z"/>
	<path class="st0" d="M942.8,34.4h30.7v120.5h-30.7V34.4z"/>
	<path class="st0" d="M1003.5,34.4h62.1V60h-31.4v22.2h27.3v25h-27.3v21.9h31.6v25.7h-62.3V34.4L1003.5,34.4z"/>
	<path class="st0" d="M1090.1,152.6v-28c9.8,5.1,17.9,7.6,24.5,7.6c3.8,0,6.9-1,9.1-2.8c2.2-1.9,3.4-4.4,3.4-7.6
		c0-2.4-0.9-4.7-2.7-6.7c-1.8-2.1-4.9-4.7-9.3-7.7c-10.7-7.2-18.3-14-23.1-20.1c-4.8-6.2-7.2-13.1-7.2-20.8
		c0-10.4,3.6-18.9,11.1-25.4c7.4-6.5,16.9-9.8,28.6-9.8c8.6,0,17.2,1.6,25.7,4.9v27c-9.1-4.5-16.5-6.7-22.2-6.7
		c-3.8,0-6.7,0.8-9,2.5c-2.2,1.6-3.3,3.9-3.3,6.8c0,5.1,5.1,10.7,15.3,17c6.1,3.7,12.2,9,18.5,15.7c6.2,6.7,9.4,14.6,9.4,23.5
		c0,10.4-4.1,19-12.2,25.8c-8.2,6.8-18.6,10.2-31.2,10.2C1107.1,158,1098.6,156.1,1090.1,152.6z"/>
</g>
<circle class="st0" cx="1246.5" cy="95.6" r="37.5"/>
</svg>
