<?xml version="1.0" encoding="utf-8"?>
<!-- Generator: Adobe Illustrator 24.0.1, SVG Export Plug-In . SVG Version: 6.00 Build 0)  -->
<svg version="1.1" id="Layer_1" xmlns="http://www.w3.org/2000/svg" xmlns:xlink="http://www.w3.org/1999/xlink" x="0px" y="0px"
	 viewBox="0 0 1259.2 186" style="enable-background:new 0 0 1259.2 186;" xml:space="preserve">
<style type="text/css">
	.st0{fill:none;stroke:#45474E;stroke-width:2;stroke-miterlimit:10;}
</style>
<g>
	<path class="st0" d="M5.9,5.7h34.6v134.7H68V181H6L5.9,5.7L5.9,5.7z"/>
	<path class="st0" d="M91.4,5.7h70V43H126v32.3h30.7v36.4H126v31.9h35.6V181H91.4V5.7z"/>
	<path class="st0" d="M200,5.7h43.7c6.2,37.8,11.2,70.3,14.7,97.6l3.8-27.2c1.5-10.6,3.2-20.9,4.9-31l6.7-39.4h44.7L335.9,181h-34.3
		l-9.3-120.5L271,181h-23.4L225.2,60.2L216.3,181h-32.8L200,5.7z"/>
	<path class="st0" d="M363.2,5.7h35l44,101.1l-1.3-18.9V5.7h34.6V181H440l-43.1-99.5l0.9,21.8V181h-34.6L363.2,5.7L363.2,5.7z"/>
	<path class="st0" d="M509.5,5.7h34.6V181h-34.6L509.5,5.7L509.5,5.7z"/>
	<path class="st0" d="M577.9,177.7v-40.8c11,7.4,20.2,11,27.6,11c4.3,0,7.8-1.4,10.3-4.1c2.5-2.8,3.8-6.4,3.8-11c0-3.5-1-6.8-3-9.8
		c-2-3.1-5.5-6.8-10.5-11.2c-12-10.5-20.6-20.3-26-29.3S572,63.4,572,52.2c0-15.1,4.1-27.5,12.5-37c8.3-9.5,19-14.3,32.2-14.3
		c9.7,0,19.4,2.4,29,7.2v39.3c-10.3-6.5-18.6-9.7-25-9.7c-4.3,0-7.6,1.2-10.1,3.6c-2.5,2.4-3.7,5.7-3.7,9.9
		c0,7.4,5.7,15.6,17.2,24.8C631,81.4,638,89,645,98.8s10.6,21.3,10.6,34.2c0,15.1-4.6,27.7-13.8,37.6c-9.2,9.9-20.9,14.9-35.1,14.9
		C597,185.6,587.5,182.9,577.9,177.7z"/>
	<path class="st0" d="M760.5,139.6v41.6c-7.3,2.7-13.9,4.1-19.6,4.1c-20,0-36.3-8.6-48.7-25.9s-18.7-40-18.7-68.2
		c0-26.2,6.3-47.8,18.8-64.8c12.6-17,28.4-25.5,47.6-25.5c7.5,0,14.3,1.1,20.6,3.4V46c-6.6-2.5-12.9-3.8-18.7-3.8
		c-9,0-16.4,4.7-22.4,14.2c-5.9,9.5-8.9,21.5-8.9,36.1c0,15.8,3,28.2,9,37.4c6,9.1,14,13.7,23.9,13.7
		C748.2,143.5,753.9,142.2,760.5,139.6z"/>
	<path class="st0" d="M889.5,181h-36l-5.8-29.3h-36.5l-6.1,29.3h-35.3L810.3,5.7h38.8L889.5,181z M841.1,120.2
		c-5.2-26.1-9.1-50.9-11.7-74.4H829c-2.7,24.2-6.6,49.1-11.5,74.4H841.1z"/>
	<path class="st0" d="M888.8,5.7h82.6v40h-23.9V181h-35.1V45.7h-23.6V5.7z"/>
	<path class="st0" d="M992.9,5.7h70V43h-35.4v32.3h30.7v36.4h-30.7v31.9h35.6V181h-70.2L992.9,5.7L992.9,5.7z"/>
	<circle class="st0" cx="1176.4" cy="93.3" r="44.5"/>
</g>
</svg>
