<?xml version="1.0" encoding="utf-8"?>
<!-- Generator: Adobe Illustrator 24.0.1, SVG Export Plug-In . SVG Version: 6.00 Build 0)  -->
<svg version="1.1" xmlns="http://www.w3.org/2000/svg" xmlns:xlink="http://www.w3.org/1999/xlink" x="0px" y="0px"
	 viewBox="0 0 1010.97 554.47" style="enable-background:new 0 0 1010.97 554.47;" xml:space="preserve">
<style type="text/css">
	.st0{enable-background:new    ;}
	.st1{fill:#2E76FF;}
</style>
<g id="Shape_3_1_" class="st0">
	<g id="Shape_3">
		<g>
			<path class="st1" d="M401.46,356.2l-54.51-55.52c-8.33-10.65-16.26-1.91-16.26-1.91c-42.55,52.93-107.9,47.61-107.9,47.61
				c-107.37-11.61-97.63-114.01-97.63-114.01c12.34-101.62,105.69-97.86,105.69-97.86c115.27-4.96,343.23,140.24,343.23,140.24
				C411.09,49.59,270.1,27.56,270.1,27.56C120.83-1.03,52.69,115.33,52.69,115.33C-25.6,237.67,42.62,349.4,42.62,349.4
				c113.97,179.27,282.83,84.75,282.83,84.75c55.05-33.54,76-59.76,76-59.76C411.05,363.69,401.46,356.2,401.46,356.2z"/>
		</g>
	</g>
</g>
<g id="Shape_3_copy_1_" class="st0">
	<g id="Shape_3_copy_3_">
		<g>
			<path class="st1" d="M967.52,208.7c-113.97-179.26-282.83-84.74-282.83-84.74c-55.05,33.54-76,59.75-76,59.75
				c-9.59,10.7,0,18.19,0,18.19l54.51,55.52c8.33,10.65,16.26,1.91,16.26,1.91c42.55-52.93,107.9-47.61,107.9-47.61
				c107.37,11.61,97.63,114,97.63,114c-12.34,101.61-105.69,97.86-105.69,97.86c-115.27,4.96-343.23-140.23-343.23-140.23
				c162.98,225.13,303.97,247.16,303.97,247.16c149.27,28.59,217.41-87.77,217.41-87.77C1035.75,320.42,967.52,208.7,967.52,208.7z"
				/>
		</g>
	</g>
</g>
<g id="Shape_2_1_" class="st0">
	<g id="Shape_2">
		<g>
			<path class="st1" d="M479.07,400.05c-243,237-467,3-467,3c269.83,301.73,519,45,519,45L479.07,400.05z"/>
		</g>
	</g>
</g>
<g id="Shape_2_copy_1_" class="st0">
	<g id="Shape_2_copy_3_">
		<g>
			<path class="st1" d="M480.07,111l52,48.05c243-237.25,467-3,467-3C729.25-145.99,480.07,111,480.07,111z"/>
		</g>
	</g>
</g>
</svg>
