<svg xmlns="http://www.w3.org/2000/svg" xmlns:xlink="http://www.w3.org/1999/xlink" width="46px" height="45px" viewBox="0 0 46 45"><defs><linearGradient id="linear0" gradientUnits="userSpaceOnUse" x1="22.3705" y1="15.7721" x2="-0.860454" y2="16.0995"><stop offset="0" style="stop-color:rgb(47.45098%,0%,100%);stop-opacity:1;"></stop><stop offset="1" style="stop-color:rgb(100%,13.72549%,46.666667%);stop-opacity:1;"></stop></linearGradient></defs><g id="surface1"><path style="fill:none;stroke-width:1.5;stroke-linecap:round;stroke-linejoin:round;stroke:url(#linear0);stroke-miterlimit:4;" d="M 35.040082 30.74974 L 19.690557 37.57474 C 18.71841 38.004688 17.611753 38.004688 16.642663 37.57474 L 1.290082 30.74974 M 35.040082 21.375521 L 19.690557 28.197135 C 18.71841 28.630469 17.611753 28.630469 16.642663 28.197135 L 1.290082 21.375521 M 2.769701 11.801563 L 16.48981 18.660417 C 17.544497 19.188542 18.788723 19.188542 19.84341 18.660417 L 33.563519 11.801563 C 34.945312 11.110938 34.945312 9.13724 33.563519 8.446615 L 19.84341 1.58776 C 18.788723 1.059635 17.544497 1.059635 16.48981 1.58776 L 2.769701 8.446615 C 1.387908 9.13724 1.387908 11.110938 2.769701 11.801563 Z M 2.769701 11.801563 " transform="matrix(1.277778,0,0,1.153846,0,0)"></path></g></svg>