<svg xmlns="http://www.w3.org/2000/svg" width="45" height="45" viewBox="0 0 45 45" fill="none"><path d="M12.0379 28.3214C12.4582 28.079 12.602 27.541 12.3596 27.1208C12.1169 26.7009 11.5792 26.5567 11.159 26.7991C10.7388 27.0418 10.5946 27.5798 10.8373 27.9997C11.0797 28.4199 11.6177 28.5641 12.0379 28.3214V28.3214Z" fill="url(#paint0_linear_79_5333)"></path><path d="M8.43613 34.3876L12.8622 42.0543C13.8174 43.7105 15.9659 44.3237 17.665 43.3414C19.3462 42.3698 19.9241 40.2216 18.9514 38.539L16.3147 33.9715L18.5981 32.6531C19.0184 32.41 19.1626 31.8727 18.9198 31.4525L17.7769 29.4729C17.9132 29.4465 18.8093 29.2707 34.6114 26.1708C36.5649 26.0647 37.7353 23.9282 36.7486 22.2202L33.8276 17.161L35.6942 14.3337C35.8776 14.0556 35.8886 13.6982 35.722 13.4099L33.9642 10.3653C33.7977 10.0769 33.4815 9.90796 33.1502 9.92753L29.7688 10.1304L26.5261 4.51367C26.0565 3.7 25.215 3.20733 24.2757 3.19566C24.2643 3.19531 24.2534 3.19531 24.242 3.19531C23.3343 3.19531 22.5103 3.64713 22.0221 4.41102L10.5407 19.0373L3.07652 23.3466C0.140764 25.0409 -0.876158 28.8072 0.824662 31.7508C2.37854 34.4425 5.65453 35.5013 8.43613 34.3876V34.3876ZM17.4295 39.4183C17.9149 40.258 17.6276 41.3326 16.7854 41.8191C15.9405 42.3077 14.8645 42.0076 14.3845 41.1757L9.99001 33.5632L13.0346 31.8054C18.1206 40.6158 17.3478 39.2772 17.4295 39.4183V39.4183ZM15.4358 32.4488L14.5569 30.9265L16.0792 30.0476L16.9581 31.5699L15.4358 32.4488ZM32.7135 11.7145L33.9282 13.8184L32.845 15.4588L30.7514 11.8323L32.7135 11.7145ZM23.4922 5.37473C23.7281 4.98883 24.1023 4.94901 24.254 4.95312C24.4041 4.95484 24.7779 5.00153 25.0035 5.39223L35.2263 23.0991C35.5593 23.6755 35.1545 24.4003 34.4868 24.4168C34.367 24.4195 34.3117 24.4412 34.0047 24.4985L23.1911 5.76852C23.418 5.47669 23.4472 5.44854 23.4922 5.37473V5.37473ZM22.0214 7.25854L32.1814 24.8562L16.8479 27.8637L12.1856 19.7884L22.0214 7.25854ZM2.34696 30.8719C1.96106 30.2042 1.75713 29.4461 1.75713 28.6791C1.75713 27.1115 2.59964 25.6517 3.95542 24.8689L10.8057 20.9139L15.2003 28.5253L8.34995 32.4807C6.25122 33.692 3.55854 32.9703 2.34696 30.8719V30.8719Z" fill="url(#paint1_linear_79_5333)"></path><path d="M9.31503 28.8786C9.07231 28.4584 8.53466 28.3142 8.11443 28.5569L6.59214 29.4358C6.1726 29.6782 5.63393 29.5337 5.39154 29.1141C5.14881 28.6939 4.61117 28.5497 4.19094 28.7924C3.77072 29.0352 3.62652 29.5728 3.86925 29.993C4.59263 31.2462 6.20625 31.688 7.47105 30.9581L8.99334 30.0792C9.41357 29.8365 9.55776 29.2992 9.31503 28.8786V28.8786Z" fill="url(#paint2_linear_79_5333)"></path><path d="M43.6937 5.07537L38.7962 7.80066C38.3722 8.03687 38.2194 8.57211 38.4556 8.99611C38.6911 9.41977 39.226 9.57324 39.651 9.33669L44.5482 6.61139C44.9725 6.37519 45.125 5.83994 44.8888 5.41594C44.6529 4.99159 44.1177 4.83916 43.6937 5.07537V5.07537Z" fill="url(#paint3_linear_79_5333)"></path><path d="M43.18 14.1782L39.7842 13.2684C39.3153 13.1428 38.8332 13.4208 38.7076 13.8898C38.5819 14.3588 38.8604 14.8405 39.3293 14.9661L42.7255 15.8759C43.1972 16.0026 43.6768 15.7201 43.8018 15.2545C43.9275 14.7855 43.649 14.3035 43.18 14.1782Z" fill="url(#paint4_linear_79_5333)"></path><path d="M34.6464 1.88207L33.7356 5.27822C33.6099 5.7472 33.888 6.22888 34.357 6.35488C34.8256 6.48019 35.3077 6.20279 35.4337 5.73346L36.3441 2.33732C36.4698 1.86834 36.1917 1.38631 35.7227 1.26066C35.2541 1.135 34.7721 1.41309 34.6464 1.88207V1.88207Z" fill="url(#paint5_linear_79_5333)"></path><defs><linearGradient id="paint0_linear_79_5333" x1="11.8174" y1="27.3797" x2="10.6074" y2="27.3982" gradientUnits="userSpaceOnUse"><stop stop-color="#7900FF"></stop><stop offset="1" stop-color="#FF2377"></stop></linearGradient><linearGradient id="paint1_linear_79_5333" x1="23.1748" y1="19.3294" x2="-2.36597" y2="19.687" gradientUnits="userSpaceOnUse"><stop stop-color="#7900FF"></stop><stop offset="1" stop-color="#FF2377"></stop></linearGradient><linearGradient id="paint2_linear_79_5333" x1="7.29984" y1="29.5798" x2="3.39192" y2="29.6983" gradientUnits="userSpaceOnUse"><stop stop-color="#7900FF"></stop><stop offset="1" stop-color="#FF2377"></stop></linearGradient><linearGradient id="paint3_linear_79_5333" x1="42.5012" y1="6.7452" x2="37.9216" y2="6.84939" gradientUnits="userSpaceOnUse"><stop stop-color="#7900FF"></stop><stop offset="1" stop-color="#FF2377"></stop></linearGradient><linearGradient id="paint4_linear_79_5333" x1="41.8967" y1="14.298" x2="38.3512" y2="14.403" gradientUnits="userSpaceOnUse"><stop stop-color="#7900FF"></stop><stop offset="1" stop-color="#FF2377"></stop></linearGradient><linearGradient id="paint5_linear_79_5333" x1="35.3723" y1="3.27795" x2="33.535" y2="3.29253" gradientUnits="userSpaceOnUse"><stop stop-color="#7900FF"></stop><stop offset="1" stop-color="#FF2377"></stop></linearGradient></defs></svg>