<svg xmlns="http://www.w3.org/2000/svg" width="45" height="45" viewBox="0 0 45 45" fill="none"><path fill-rule="evenodd" clip-rule="evenodd" d="M5.15625 21.5625C5.15625 30.6234 12.5016 37.9688 21.5625 37.9688C30.6234 37.9688 37.9688 30.6234 37.9688 21.5625C37.9688 12.5016 30.6234 5.15625 21.5625 5.15625C12.5016 5.15625 5.15625 12.5016 5.15625 21.5625ZM21.5625 40.7812C10.9483 40.7812 2.34375 32.1767 2.34375 21.5625C2.34375 10.9483 10.9483 2.34375 21.5625 2.34375C32.1767 2.34375 40.7812 10.9483 40.7812 21.5625C40.7812 26.3635 39.0209 30.7533 36.1104 34.1216L42.2444 40.2556C42.7935 40.8048 42.7935 41.6952 42.2444 42.2444C41.6952 42.7935 40.8048 42.7935 40.2556 42.2444L34.1216 36.1104C30.7533 39.0209 26.3635 40.7812 21.5625 40.7812Z" fill="url(#paint0_linear_173_5846)"></path><defs><linearGradient id="paint0_linear_173_5846" x1="27.5214" y1="18.3568" x2="-0.225638" y2="18.782" gradientUnits="userSpaceOnUse"><stop stop-color="#7900FF"></stop><stop offset="1" stop-color="#FF2377"></stop></linearGradient></defs></svg>