<svg xmlns="http://www.w3.org/2000/svg" width="46" height="45" viewBox="0 0 46 45" fill="none"><g clip-path="url(#clip0_173_5916)"><path d="M32.3257 2.8125C30.546 2.81457 28.7855 3.18124 27.153 3.88988C25.5204 4.59853 24.0504 5.63413 22.8335 6.93281C21.0502 5.02953 18.7359 3.7063 16.191 3.1349C13.6462 2.5635 10.9883 2.77032 8.56252 3.72852C6.1367 4.68672 4.05496 6.35203 2.58753 8.50828C1.12011 10.6645 0.33478 13.2121 0.333496 15.8203C0.333496 28.7719 21.2233 41.4844 22.1304 41.9836C22.3491 42.115 22.5994 42.1844 22.8546 42.1844C23.1097 42.1844 23.3601 42.115 23.5788 41.9836C24.4437 41.4844 45.3335 28.7719 45.3335 15.8203C45.3298 12.3716 43.9581 9.06514 41.5195 6.62651C39.0809 4.18788 35.7744 2.81622 32.3257 2.8125ZM22.8335 39.1219C19.1983 36.8016 3.146 25.9594 3.146 15.8203C3.1478 13.6546 3.83917 11.5458 5.11991 9.79945C6.40066 8.05308 8.20423 6.75991 10.2692 6.10735C12.3342 5.45478 14.5534 5.47674 16.6051 6.17003C18.6568 6.86331 20.4344 8.19192 21.6804 9.96328C21.8102 10.1475 21.9824 10.2979 22.1824 10.4017C22.3825 10.5055 22.6046 10.5596 22.83 10.5596C23.0554 10.5596 23.2775 10.5055 23.4775 10.4017C23.6776 10.2979 23.8498 10.1475 23.9796 9.96328C25.2245 8.18887 27.0025 6.8574 29.0556 6.16216C31.1086 5.46692 33.3298 5.4441 35.3967 6.09701C37.4636 6.74992 39.2686 8.04457 40.5497 9.79303C41.8308 11.5415 42.5213 13.6527 42.521 15.8203C42.521 25.9523 26.4687 36.7945 22.8335 39.1219Z" fill="url(#paint0_linear_173_5916)"></path></g><defs><linearGradient id="paint0_linear_173_5916" x1="28.4388" y1="18.4519" x2="-2.53243" y2="18.9944" gradientUnits="userSpaceOnUse"><stop stop-color="#7900FF"></stop><stop offset="1" stop-color="#FF2377"></stop></linearGradient><clipPath id="clip0_173_5916"><rect width="45" height="45" fill="white" transform="translate(0.333496)"></rect></clipPath></defs></svg>